# xmcd
#
# Track frame offsets: 
#        150
#        13434
#        24547
#        36118
#        49345
#        61053
#        75385
#        88250
#        100438
#        112674
#        125163
#        138705
#        150559
#        162896
#        175421
#        189860
#        202406
#        214171
#        227762
#        241241
#        254085
#        267395
#        280050
#        293965
#        307064
#        320386
#        333482
#
# Disc length: 4599 seconds
#
# Revision: 1
# Processed by: cddbd v1.5.2PL0 Copyright (c) Steve Scherf et al.
# Submitted via: ExactAudioCopy v1.0b1
#
DISCID=9811f51b
DTITLE=Various Artist - Country and Western hit Parade 1947
DYEAR=2008
DGENRE=Country
TTITLE0=Tex Williams - Smoke, Smoke, Smoke (That Cigarette)
TTITLE1=Eddy Arnold - It's A Sin
TTITLE2=Bob Wills - Sugar Moon
TTITLE3=Sons Of The Pioneers - Cigarettes, Whisky And Wild, Wild Women
TTITLE4=Billy Hughes - Cocaine Blues
TTITLE5=Maddox Brothers and Rose - Milk Cow Blues
TTITLE6=Moon Mullican - Foggy River
TTITLE7=Ernest Tubb - I'll Step Aside
TTITLE8=Roy Acuff - Blue Eyes Crying In The Rain
TTITLE9=The Delmore Brothers - Freight Train Boogie
TTITLE10=Merle Travis - So Round, So Firm, So Fully Packed
TTITLE11=Cowboy Copas - Signed, Sealed And Delivered
TTITLE12=Eddy Arnold - I'll Hold You In My Heart (Till I Can Hold You 
TTITLE12=In My Arms)
TTITLE13=Hank Williams - Move It On Over
TTITLE14=Red Foley - Never Trust A Woman
TTITLE15=Clyde Moody - Shenandoah Waltz
TTITLE16=Jack Guthrie - Oakie Boogie
TTITLE17=Moon Mullican - New Pretty Blonde (New Jole Blon)
TTITLE18=Bill Carlisle - Rockin' Chair Money
TTITLE19=The Cumberland Mountain Folks (Vocal By Molly O'Day) - The Tr
TTITLE19=amp On The Street
TTITLE20=Hawkshaw Hawkins - Sunny Side Of The Mountain
TTITLE21=Fairley Holden - Keep Them Cold Icey Fingers Off Of Me
TTITLE22=Bill Monroe - Blue Moon Of Kentucky
TTITLE23=Charlie Monroe - Bringin' In The Georgia Mail
TTITLE24=The Bailes Brothers - Dust On The Bible
TTITLE25=Carl Story - I've Found A Hiding Place
TTITLE26=Chet Atkins - Canned Heat
EXTD=
EXTT0=
EXTT1=
EXTT2=
EXTT3=
EXTT4=
EXTT5=
EXTT6=
EXTT7=
EXTT8=
EXTT9=
EXTT10=
EXTT11=
EXTT12=
EXTT13=
EXTT14=
EXTT15=
EXTT16=
EXTT17=
EXTT18=
EXTT19=
EXTT20=
EXTT21=
EXTT22=
EXTT23=
EXTT24=
EXTT25=
EXTT26=
PLAYORDER=
